# xmcd
#
# Track frame offsets: 
#        150
#        85652
#        102355
#        133228
#        178751
#
# Disc length: 2809 seconds
#
# Revision: 0
# Processed by: cddbd v1.5.2PL0 Copyright (c) Steve Scherf et al.
# Submitted via: ExactAudioCopy v1.3
#
DISCID=3d0af705
DTITLE=Roland Van Campenhout - Somewhere In The Mountains [CD2]
DYEAR=2019
DGENRE=Blues
TTITLE0=Poetry And All That Jazz
TTITLE1=Worried Man Blues
TTITLE2=She Belongs To Me
TTITLE3=Never Enough
TTITLE4=The Lament Of The Cherokee Indian
EXTD=
EXTT0=
EXTT1=
EXTT2=
EXTT3=
EXTT4=
PLAYORDER=
